PathFileType	4	(X/Y/Z)	 s04c0301.trc
DataRate	CameraRate	NumFrames	NumMarkers	Units	OrigDataRate	OrigDataStartFrame	OrigNumFrames
200	200	6	50	mm	200	1001	2000
Frame#	Time	racr			lacr			c7			jug			rlel			rdr			llel			ldr			s2			lic			ric			lasi			rasi			rpsi			lpsi			rgt			lgt			rth1			rth2			rth3			rth4			rlfc			rmfc			rsh1			rsh2			rsh3			rsh4			rlmal			rmmal			rcal			rtoe			rmt5			lth1			lth2			lth4			lth3			llfc			lmfc			lsh1			lsh2			lsh3			lsh4			llmal			lmmal			lcal			ltoe			lmt5			SBIKE			LBIKE			RBIKE			
		X1	Y1	Z1	X2	Y2	Z2	X3	Y3	Z3	X4	Y4	Z4	X5	Y5	Z5	X6	Y6	Z6	X7	Y7	Z7	X8	Y8	Z8	X9	Y9	Z9	X10	Y10	Z10	X11	Y11	Z11	X12	Y12	Z12	X13	Y13	Z13	X14	Y14	Z14	X15	Y15	Z15	X16	Y16	Z16	X17	Y17	Z17	X18	Y18	Z18	X19	Y19	Z19	X20	Y20	Z20	X21	Y21	Z21	X22	Y22	Z22	X23	Y23	Z23	X24	Y24	Z24	X25	Y25	Z25	X26	Y26	Z26	X27	Y27	Z27	X28	Y28	Z28	X29	Y29	Z29	X30	Y30	Z30	X31	Y31	Z31	X32	Y32	Z32	X33	Y33	Z33	X34	Y34	Z34	X35	Y35	Z35	X36	Y36	Z36	X37	Y37	Z37	X38	Y38	Z38	X39	Y39	Z39	X40	Y40	Z40	X41	Y41	Z41	X42	Y42	Z42	X43	Y43	Z43	X44	Y44	Z44	X45	Y45	Z45	X46	Y46	Z46	X47	Y47	Z47	X48	Y48	Z48	X49	Y49	Z49	X50	Y50	Z50	
1001	5.0050	839.827277	1293.397298	-116.292095	880.192195	1223.805866	-399.481393	871.900726	1333.549659	-269.475080	801.700433	1194.098661	-256.106968	596.111150	1140.747190	41.299075	710.434254	912.257543	-77.580156	629.778462	1146.780907	-552.581895	712.419160	924.961892	-448.080374	264.381154	1300.619834	-219.707335	388.187839	1288.110835	-407.099036	436.624689	1242.706479	-88.280078	416.177595	1235.982150	-375.413519	450.694718	1183.753911	-140.521335	316.571591	1327.953221	-183.699804	301.555024	1341.402253	-254.197437	368.833864	1194.979465	-68.209578	335.216691	1219.507073	-429.257126	378.548134	1031.132084	-48.976074	399.732394	945.804970	-58.274212	378.652880	863.174672	-66.849217	433.986168	948.236468	-73.416347	375.062619	717.719183	-98.477574	346.260876	710.782041	-209.715182	294.341828	620.246576	-73.568162	262.200648	537.446243	-91.891389	192.435438	485.828118	-98.986605	288.222958	522.511689	-116.510428	111.006925	355.815281	-108.784728	134.426042	353.875005	-192.940859	49.626319	381.579697	-147.038250	236.801804	140.907277	-159.380292	177.107935	173.863626	-100.875901	386.868330	1143.535580	-437.562803	462.938559	1101.404235	-442.020329	487.712094	1127.000851	-432.882864	508.357460	1026.073131	-450.196890	609.922197	896.854919	-435.285650	637.021307	865.660315	-323.699184	548.016298	801.060865	-459.063241	506.000890	726.227318	-441.645720	430.418830	678.953088	-440.312738	528.034347	708.534590	-414.593063	324.373195	573.565000	-435.019288	320.310617	576.760331	-347.123972	240.690059	591.366725	-396.340708	493.980275	426.772949	-395.933582	416.634560	431.436250	-460.362654	-177.420948	939.224701	-279.369621	-3.215892	86.025727	-484.689528	-14.956154	80.676851	-84.255010	
1002	5.0100	839.485625	1293.367944	-116.132331	878.761988	1221.788522	-400.110986	871.993255	1332.449524	-269.436002	799.899079	1193.998528	-255.868742	596.875754	1140.745018	42.030647	710.478283	912.432145	-77.075594	627.076290	1146.206326	-551.448305	712.065328	925.125265	-448.138181	264.793745	1303.036077	-222.515030	389.660825	1287.354204	-408.514368	434.695506	1245.374267	-89.092942	417.112671	1234.790343	-375.847680	449.164402	1185.531483	-140.445477	316.519551	1330.435175	-185.827014	302.026733	1343.487100	-256.472299	367.647133	1197.689086	-68.707356	335.815916	1219.415019	-430.360507	380.461442	1033.077859	-49.457338	403.861235	948.438927	-59.593808	384.918649	865.154263	-67.698453	437.905102	951.946423	-74.951142	382.593544	719.928153	-98.107248	354.201267	713.420313	-209.482595	298.275571	624.352132	-73.915880	263.876660	542.615963	-92.798284	192.564731	493.179515	-100.529537	289.597865	527.103252	-117.490458	106.576687	365.550398	-111.226177	130.904878	362.601745	-195.489410	45.915338	391.533251	-151.729919	228.762066	147.439428	-157.584509	168.779592	182.438465	-100.818616	385.932929	1141.276758	-438.154042	461.117500	1097.670239	-441.932101	486.382741	1122.753503	-433.125348	505.057047	1021.164924	-448.782056	603.691163	890.319748	-433.310133	631.007799	859.454113	-321.674060	544.299793	791.881693	-457.880102	503.599079	716.414834	-440.251361	428.411218	668.240954	-439.200337	525.272543	699.561821	-412.558740	323.990277	561.710592	-435.010367	318.868429	564.247582	-347.292591	239.315021	575.687485	-396.661821	500.395453	423.770760	-396.165513	422.946597	424.635337	-460.579409	-177.425225	939.174151	-279.677503	-3.213595	85.927987	-484.725857	-14.990559	80.698514	-84.302206	
1003	5.0150	839.008299	1293.370623	-115.655899	877.482640	1220.218776	-400.787065	872.101959	1331.567092	-268.875429	798.066914	1194.123044	-255.638511	597.409953	1140.678851	42.846046	710.196482	912.351345	-76.941983	624.458761	1145.599520	-550.115571	711.774396	924.990178	-447.847624	265.203124	1305.074697	-225.624239	391.132806	1286.219658	-409.863458	433.073613	1247.806284	-89.872139	418.154888	1233.068969	-376.221408	447.702880	1187.192040	-140.550278	316.675252	1332.141924	-188.538488	302.563848	1345.039561	-259.122314	363.774966	1200.079342	-71.298602	336.595311	1218.628829	-431.816157	382.858893	1035.307611	-50.284893	408.327630	951.232072	-61.001642	391.614538	867.482948	-68.399051	441.280176	955.429937	-78.526929	390.219120	722.219703	-97.667951	362.448942	716.149013	-209.184994	302.380878	628.651480	-74.198335	264.732224	547.796907	-93.898364	192.771394	500.988662	-102.052603	290.951841	531.863167	-118.277792	102.349134	375.606197	-113.419593	127.945325	371.814224	-197.719260	42.341966	402.287202	-155.722645	221.247825	154.850008	-156.187993	160.845773	191.594482	-101.057827	385.174291	1138.405060	-438.620449	459.447851	1093.255061	-441.798849	485.147598	1117.873318	-433.311817	501.691949	1015.584495	-447.024492	597.869967	882.798548	-430.557968	624.319965	852.241651	-319.611630	540.157329	781.823203	-456.518416	500.569860	706.001210	-438.357729	426.257021	656.550086	-437.838725	522.292921	689.710385	-410.466556	323.681893	549.207504	-434.876244	317.773700	550.850622	-347.418049	238.428876	559.469730	-396.857654	506.475377	420.143599	-396.692391	428.775140	417.103488	-460.774446	-177.396251	939.128071	-279.960221	-3.247684	85.855821	-484.746621	-14.999432	80.665214	-84.325627	
1004	5.0200	838.464386	1293.604164	-114.919000	876.372764	1219.048899	-401.344131	872.261625	1330.814760	-268.045779	796.265426	1194.395589	-255.451716	597.661071	1140.476976	43.776221	710.551640	912.396965	-76.860729	622.022244	1144.861365	-548.542580	711.553581	924.609518	-447.275112	265.577883	1306.773314	-228.794422	392.615363	1284.770802	-411.213401	431.464684	1250.000891	-90.695265	419.258940	1230.833354	-376.566464	446.295328	1188.416789	-140.403220	316.062883	1333.887082	-190.607003	303.049726	1346.102143	-261.731921	362.776416	1203.164302	-71.579480	337.316716	1216.762623	-432.914542	385.426958	1037.649973	-51.822250	413.047005	954.238491	-62.625515	398.513470	869.975550	-68.942818	444.863253	959.060404	-82.147385	397.825307	724.568632	-97.122630	370.865268	718.662238	-208.883508	306.572343	633.219818	-74.328848	266.577253	553.619570	-94.452930	193.141161	509.139754	-103.336692	292.379318	536.908905	-118.785847	98.640389	385.779538	-115.471856	125.669685	381.601118	-199.591721	39.089320	413.237257	-159.269967	214.364893	162.701513	-155.125406	153.781870	201.090652	-101.529122	384.532845	1135.219862	-439.114998	457.810751	1088.306266	-441.735530	484.054658	1112.451457	-433.474141	498.230320	1009.652686	-445.872988	591.538228	874.963662	-427.878429	617.104318	844.426491	-317.500893	535.693151	771.277871	-454.516900	497.366260	695.085348	-436.051651	424.203473	644.091322	-436.164456	519.365770	679.493807	-407.960091	323.613227	535.904738	-434.485022	317.189359	536.860218	-347.214580	238.472611	542.265871	-396.768616	511.748875	414.758863	-396.840832	434.232764	408.882470	-460.898411	-177.329156	939.145261	-280.251375	-3.270868	85.795943	-484.792173	-15.016748	80.659281	-84.343621	
1005	5.0250	837.903149	1293.922954	-113.842662	875.314004	1218.433013	-401.514296	872.405818	1330.036107	-266.995715	794.483039	1194.636425	-255.327670	597.698123	1140.250698	44.786932	709.930480	912.470969	-76.310192	619.788687	1144.073962	-546.858367	711.353702	924.023799	-446.393783	265.880454	1308.044009	-231.981425	394.092357	1283.038462	-412.683308	429.990609	1251.988281	-91.620170	420.379519	1228.098827	-376.914609	445.098155	1189.750586	-140.297804	314.262361	1335.004472	-192.178041	303.551110	1347.167573	-264.117901	363.026446	1206.261361	-71.647924	338.060968	1214.036245	-433.986904	388.146757	1040.098660	-53.639756	417.805053	957.406609	-64.234742	405.533428	872.835685	-69.427451	449.107866	962.827742	-84.315608	405.133796	726.949277	-96.590455	379.231686	721.159228	-208.729836	310.804421	637.873685	-74.321461	268.634393	559.495007	-94.820011	193.854797	517.421685	-104.445585	294.017426	542.122923	-118.793117	95.737754	396.197800	-117.298558	123.823388	391.583960	-201.298613	36.964010	424.418328	-162.341988	208.027017	170.722660	-154.289424	147.454213	210.829611	-102.035988	384.008019	1131.687461	-439.616160	456.245445	1083.065611	-441.720098	482.958530	1106.700505	-433.740581	494.795166	1003.368580	-444.789183	584.784076	866.618127	-425.640298	609.606937	836.416364	-315.539047	530.948115	760.955732	-451.878877	493.953789	683.992470	-433.632636	422.303657	631.158119	-434.278781	516.301235	668.807363	-405.238435	323.963609	522.255155	-434.088815	317.220167	522.637095	-346.701518	238.467133	526.019994	-396.481764	516.401825	408.401599	-396.806418	439.177690	400.071401	-460.856003	-177.203914	939.171508	-280.491234	-3.280648	85.739035	-484.822621	-15.042203	80.673835	-84.371301	
1006	5.0300	837.362199	1294.232392	-112.503286	874.223508	1218.121360	-401.400159	872.504020	1329.298529	-265.573988	792.674154	1194.933718	-255.018363	597.633312	1139.971404	45.877022	708.618829	912.175555	-76.288204	617.734558	1143.209958	-545.071830	711.239461	923.342078	-445.545926	265.973715	1308.761632	-235.313814	395.502976	1280.971088	-414.114313	428.651977	1253.805331	-92.619207	421.395985	1225.655803	-377.401326	444.005643	1190.755215	-140.931793	312.667608	1335.019260	-192.735281	304.160711	1346.750376	-267.830010	363.373046	1208.495940	-71.824854	338.726184	1210.698637	-435.116313	390.977668	1042.633000	-55.670482	422.574570	960.784539	-65.898428	412.479156	875.782831	-69.934688	453.569548	966.614656	-86.253890	412.034826	729.304022	-96.041953	387.389717	723.542715	-208.748023	315.252968	642.483518	-74.310441	271.009005	565.382661	-95.079911	194.978798	525.493592	-105.304853	295.809906	547.210936	-118.833766	93.887092	406.512174	-118.755400	122.130623	401.723458	-202.411401	36.005519	435.457134	-164.816331	202.363883	178.861589	-153.492359	141.948421	220.345022	-102.434935	383.547846	1127.748794	-440.173977	454.669602	1077.626055	-441.689311	481.991036	1100.597803	-433.967414	491.116269	996.931429	-444.354217	578.208191	857.979096	-423.601773	601.961176	828.240303	-313.836927	526.024558	750.533067	-449.477151	490.784119	672.730638	-431.339638	420.579487	618.076173	-432.522905	513.132534	658.318662	-402.317261	324.587904	508.834173	-433.746818	317.692159	508.735689	-346.210028	239.033871	509.851452	-395.970101	520.497757	401.299341	-396.721326	443.623244	390.704057	-460.718931	-177.066478	939.185190	-280.621309	-3.303331	85.697698	-484.839095	-15.051086	80.657996	-84.386782	
